<svg width="60" height="60" viewBox="0 0 60 60" fill="none" xmlns="http://www.w3.org/2000/svg">
<circle cx="30" cy="30" r="29.5" fill="#FFCA33" stroke="#FFCA33"/>
<path d="M22.3076 31.0554C23.8685 32.3257 25.8192 33.0491 27.8272 33.1085V31.239H32.1729V33.1085C34.181 33.0491 36.1316 32.3257 37.6926 31.0554C39.1613 29.8601 40.226 28.2286 40.735 26.4122V23.4108H36.8921C36.6353 19.8328 33.6424 17 30 17C26.3577 17 23.3648 19.8328 23.108 23.4108H19.2651V26.4122C19.7741 28.2286 20.8389 29.8601 22.3076 31.0554ZM30 18.5247C32.8012 18.5247 35.1093 20.6745 35.3622 23.4108H24.6379C24.8907 20.6745 27.1989 18.5247 30 18.5247Z" fill="#333333"/>
<path d="M42.226 34.9691L41.1459 29.3213C40.5012 30.429 39.659 31.421 38.6549 32.2382C36.8229 33.7292 34.5306 34.5744 32.1729 34.6342V36.5253H27.8272V34.6342C25.4695 34.5744 23.1771 33.7292 21.3451 32.2382C20.3411 31.421 19.4989 30.429 18.8541 29.3213L17.774 34.9691C17.3293 36.9275 17.7915 38.951 19.0433 40.5224C20.2981 42.0975 22.1727 43.001 24.1866 43.001H35.8135C37.8274 43.001 39.702 42.0976 40.9568 40.5224C42.2086 38.951 42.6708 36.9275 42.226 34.9691Z" fill="#333333"/>
<path d="M29.3519 32.7637H30.6481V35.0003H29.3519V32.7637Z" fill="#333333"/>
</svg>
