<svg width="60" height="60" viewBox="0 0 60 60" fill="none" xmlns="http://www.w3.org/2000/svg">
<circle cx="30" cy="30" r="29.5" stroke="#FFCA33"/>
<path d="M21.716 31.1361C23.397 32.5041 25.4977 33.2832 27.6601 33.3472V31.3339H32.34V33.3472C34.5024 33.2832 36.6031 32.5041 38.2841 31.1361C39.8657 29.849 41.0123 28.0921 41.5604 26.136V22.9038H37.4221C37.1454 19.0506 33.9224 16 30 16C26.0776 16 22.8545 19.0506 22.578 22.9038H18.4397V26.136C18.9878 28.0921 20.1344 29.849 21.716 31.1361ZM30 17.642C33.0166 17.642 35.5021 19.9571 35.7744 22.9038H24.2256C24.4978 19.9571 26.9834 17.642 30 17.642Z" fill="#FFCA33"/>
<path d="M43.1661 35.3507L42.0029 29.2686C41.3086 30.4615 40.4017 31.5298 39.3204 32.4098C37.3475 34.0154 34.8789 34.9257 32.3399 34.9901V37.0266H27.66V34.9901C25.1211 34.9257 22.6525 34.0154 20.6795 32.4098C19.5983 31.5298 18.6914 30.4615 17.997 29.2686L16.8339 35.3507C16.3549 37.4597 16.8527 39.6388 18.2007 41.331C19.552 43.0273 21.5708 44.0002 23.7396 44.0002H36.2605C38.4292 44.0002 40.448 43.0273 41.7993 41.331C43.1473 39.6388 43.645 37.4597 43.1661 35.3507Z" fill="#FFCA33"/>
<path d="M29.302 32.9757H30.6979V35.3843H29.302V32.9757Z" fill="#FFCA33"/>
</svg>
