<svg width="60" height="60" viewBox="0 0 60 60" fill="none" xmlns="http://www.w3.org/2000/svg">
<circle cx="30" cy="30" r="29.5" stroke="#FFCA33"/>
<path d="M29.1214 29.1127L17.2421 24.1696C16.9308 24.0417 16.5747 24.1904 16.4467 24.5018C16.417 24.5743 16.4014 24.652 16.401 24.7304V29.0639H18.6684C19.005 29.0639 19.2779 29.3368 19.2779 29.6734C19.2779 30.01 19.005 30.2829 18.6684 30.2829H15.5477C15.2111 30.2834 14.9386 30.5567 14.9391 30.8933C14.9395 31.2293 15.2117 31.5015 15.5477 31.502H16.401V32.0322H22.7521C23.0887 32.0322 23.3616 32.3051 23.3616 32.6417C23.3616 32.9783 23.0887 33.2512 22.7521 33.2512H13.6095C13.2729 33.2512 13 33.5241 13 33.8607C13 34.1973 13.2729 34.4702 13.6095 34.4702H16.4132V35.0005H19.8143C20.1509 35.0005 20.4238 35.2734 20.4238 35.61C20.4238 35.9466 20.1509 36.2195 19.8143 36.2195H14.6761C14.3395 36.2195 14.0666 36.4924 14.0666 36.829C14.0666 37.1656 14.3395 37.4385 14.6761 37.4385H16.401V38.4259C16.3796 38.6865 16.5267 38.9317 16.7667 39.0354L28.6521 43.9541C28.9634 44.082 29.3196 43.9333 29.4475 43.6219C29.4773 43.5494 29.4928 43.4718 29.4932 43.3934V29.6734C29.493 29.4289 29.3466 29.2081 29.1214 29.1127Z" fill="#FFCA33"/>
<path d="M43.4387 24.2245C43.2689 24.1115 43.0538 24.0909 42.8657 24.1696L30.9926 29.1127C30.765 29.2062 30.6159 29.4274 30.6147 29.6735V43.3934C30.6164 43.73 30.8906 44.0015 31.2272 43.9998C31.3056 43.9995 31.3833 43.9839 31.4558 43.9541L43.335 39.0354C43.5626 38.942 43.7117 38.7208 43.7129 38.4747V24.7304C43.7119 24.5265 43.6089 24.3366 43.4387 24.2245ZM33.5342 41.1626C33.5306 41.4089 33.4589 41.6494 33.327 41.8574C33.1088 42.2031 32.7237 42.4072 32.3152 42.3938C32.2402 42.4001 32.1647 42.4001 32.0897 42.3938C31.4061 42.2423 30.9747 41.5653 31.1263 40.8818C31.212 40.4949 31.4738 40.1703 31.8337 40.0045C31.9868 39.9434 32.1503 39.9123 32.3152 39.9131C32.9885 39.9129 33.5344 40.4585 33.5346 41.1318C33.5346 41.142 33.5344 41.1523 33.5342 41.1626ZM36.1673 40.675C36.01 41.1564 35.5583 41.4799 35.0519 41.4735C34.8824 41.4741 34.7146 41.4409 34.5582 41.3759C34.0939 41.1711 33.805 40.7002 33.8329 40.1935C33.8329 39.5202 34.3786 38.9745 35.0519 38.9745C35.7251 38.9745 36.2709 39.5202 36.2709 40.1935C36.2656 40.3589 36.2304 40.522 36.1673 40.675Z" fill="#FFCA33"/>
<path d="M42.1587 21.8292L37.557 20.0006L35.9784 20.6772L25.9642 24.9742L24.4039 25.6264L29.8224 27.8815C29.9725 27.9442 30.1415 27.9442 30.2917 27.8815L42.1709 22.9385C42.3921 22.8448 42.5377 22.63 42.5427 22.3899C42.5405 22.1424 42.3887 21.9207 42.1587 21.8292Z" fill="#FFCA33"/>
<path d="M30.2855 17.0445C30.1389 16.9852 29.975 16.9852 29.8284 17.0445L17.9492 21.8291C17.6378 21.957 17.4891 22.3131 17.617 22.6245C17.6789 22.7752 17.7985 22.8948 17.9492 22.9566H17.9431L22.8618 25.0168L24.4221 24.3463L34.418 20.0371L35.9966 19.3545L30.2855 17.0445Z" fill="#FFCA33"/>
<path d="M32.3464 40.499C32.336 40.4984 32.3256 40.4982 32.3152 40.4982C31.9622 40.4814 31.6623 40.754 31.6455 41.107C31.6287 41.46 31.9013 41.7599 32.2543 41.7766C32.6073 41.7935 32.9072 41.5209 32.924 41.1679C32.9244 41.158 32.9246 41.1481 32.9247 41.1381C32.9415 40.802 32.6827 40.5158 32.3464 40.499Z" fill="#FFCA33"/>
<path d="M35.0831 39.5542C35.0727 39.5537 35.0623 39.5534 35.0519 39.5534C34.6988 39.5366 34.3989 39.8092 34.3822 40.1622C34.3653 40.5152 34.6379 40.8151 34.9909 40.8319C35.344 40.8487 35.6439 40.5761 35.6606 40.2231C35.6611 40.2132 35.6613 40.2033 35.6614 40.1933C35.6782 39.8572 35.4193 39.571 35.0831 39.5542Z" fill="#FFCA33"/>
</svg>
