<svg width="60" height="60" viewBox="0 0 60 60" fill="none" xmlns="http://www.w3.org/2000/svg">
<circle cx="30" cy="30" r="29.5" fill="#FFCA33" stroke="#FFCA33"/>
<path d="M31.2173 43.9916C29.797 43.906 28.495 43.4775 27.2523 42.8777C24.4709 41.5638 22.1037 39.7644 20.0916 37.4794C18.6121 35.7942 17.3989 33.9376 16.6 31.8811C16.2154 30.8814 15.9491 29.8532 16.0082 28.7678C16.0674 28.0823 16.3337 27.511 16.8367 27.054C17.3989 26.5399 17.902 26.0258 18.4642 25.5117C19.1743 24.8261 20.062 24.8261 20.7722 25.5117C21.216 25.9401 21.6303 26.34 22.0741 26.7684C22.4884 27.1683 22.9322 27.5967 23.3465 27.9966C24.0862 28.7107 24.0862 29.5675 23.3465 30.2816C22.8138 30.7957 22.2812 31.3099 21.7486 31.824C21.6007 31.9668 21.6007 32.0525 21.6598 32.2239C22.0149 33.0522 22.5179 33.7662 23.1097 34.4517C24.2637 35.8227 25.5953 37.0509 27.1339 37.9935C27.4594 38.1934 27.8441 38.3363 28.1992 38.5362C28.3767 38.6219 28.495 38.5933 28.643 38.4505C29.1756 37.9364 29.7082 37.3937 30.2408 36.8796C30.951 36.1941 31.8387 36.1941 32.5488 36.8796C33.4069 37.7079 34.2946 38.5362 35.1527 39.3931C35.8629 40.1071 35.8629 40.964 35.1527 41.6495C34.6497 42.1351 34.1467 42.5921 33.6732 43.0776C33.0223 43.8203 32.1937 44.0488 31.2173 43.9916ZM28.6726 31.2242L28.5838 31.1385C25.5065 27.7967 25.6544 22.684 28.9685 19.4849C32.4009 16.1717 37.9933 16.1717 41.4257 19.4849C44.8581 22.7982 44.8581 28.1965 41.4257 31.5098C38.5259 34.3089 34.1171 34.7374 30.7439 32.8237L30.7143 32.7951C29.3827 33.7662 27.9624 33.9376 26.9564 33.7948C26.6309 33.7377 26.5717 33.3092 26.8676 33.1664C27.7553 32.7665 28.3471 31.9097 28.6726 31.2242ZM34.1171 21.6557C34.1171 22.4269 34.768 23.0553 35.567 23.0553C36.3363 23.0553 36.9873 22.4269 36.9873 21.6557C36.9873 20.8845 36.3659 20.2561 35.567 20.2561C34.768 20.2561 34.1171 20.8845 34.1171 21.6557ZM33.0223 24.3406C33.1702 24.3977 33.3477 24.3977 33.4957 24.4263C33.8508 24.4834 33.9987 24.5976 33.9691 24.969C33.9691 25.0261 33.9691 25.0832 33.9691 25.1403C33.8212 25.9972 33.6436 26.8827 33.4957 27.7395C33.4069 28.2251 33.3182 28.7392 33.259 29.2248C33.1406 29.9674 33.8804 30.6529 34.4721 30.71C34.8272 30.7672 35.1823 30.7672 35.5078 30.7672C36.2475 30.7672 36.8689 30.453 37.4015 29.9389C37.4903 29.8532 37.5791 29.7389 37.6086 29.5961C37.6678 29.3962 37.4903 29.2534 37.2832 29.339C37.1352 29.3962 37.0169 29.4819 36.8689 29.539C36.6914 29.5961 36.5138 29.6532 36.3363 29.6818C36.1292 29.7104 35.9516 29.5961 35.8925 29.3962C35.8629 29.2534 35.8333 29.082 35.8629 28.9106C35.8925 28.5678 35.9812 28.2537 36.0404 27.9395C36.2179 26.9398 36.4251 25.9687 36.6026 24.969C36.6618 24.7119 36.6914 24.4263 36.6914 24.1692C36.6914 23.855 36.4842 23.6836 36.1588 23.6836C35.6853 23.6836 35.2119 23.6836 34.768 23.6836C34.3242 23.6836 33.8804 23.6836 33.4365 23.6836C33.3182 23.6836 33.2294 23.6836 33.111 23.7122C32.9039 23.7408 32.8151 23.855 32.7855 23.9978C32.756 24.1406 32.8151 24.2549 33.0223 24.3406Z" fill="#333333"/>
</svg>
