<svg width="60" height="60" viewBox="0 0 60 60" fill="none" xmlns="http://www.w3.org/2000/svg">
<circle cx="30" cy="30" r="29.5" fill="#FFCA33" stroke="#FFCA33"/>
<path d="M33.0588 17.448V21.5883H37.1991L33.0588 17.448Z" fill="#333333"/>
<path d="M30.7647 31.5294C30.7647 27.7345 33.8521 24.6471 37.6471 24.6471V23.1176H31.5294V17H20.0588V39.9412H37.6471V38.4118C33.8521 38.4118 30.7647 35.3244 30.7647 31.5294ZM23.1177 21.5882H29.2353V23.1176H23.1177V21.5882ZM29.2353 35.3529H23.1177V33.8235H29.2353V35.3529ZM29.2353 32.2941H23.1177V30.7647H29.2353V32.2941ZM29.2353 29.2353H23.1177V27.7059H29.2353V29.2353ZM30 26.1765H23.1177V24.6471H30V26.1765Z" fill="#333333"/>
<path d="M37.6471 26.1765C34.6955 26.1765 32.2941 28.5778 32.2941 31.5295C32.2941 34.4811 34.6955 36.8824 37.6471 36.8824C40.5987 36.8824 43 34.4811 43 31.5295C43 28.5778 40.5987 26.1765 37.6471 26.1765ZM37.1064 33.9163L35.0363 31.8462L36.1177 30.7647L37.1064 31.7535L39.6244 29.2353L40.7059 30.3168L37.1064 33.9163Z" fill="#333333"/>
<path d="M18.5294 18.5293H17V42.9999H36.1176V41.4705H18.5294V18.5293Z" fill="#333333"/>
</svg>
