<svg width="31" height="32" viewBox="0 0 31 32" fill="none" xmlns="http://www.w3.org/2000/svg">
<circle cx="15.5" cy="16" r="15.5" fill="url(#paint0_radial_151_626)"/>
<path d="M13.0559 16.0426C13.0559 14.6702 14.1681 13.5573 15.5405 13.5573C16.9129 13.5573 18.0258 14.6702 18.0258 16.0426C18.0258 17.415 16.9129 18.5278 15.5405 18.5278C14.1681 18.5278 13.0559 17.415 13.0559 16.0426ZM11.7124 16.0426C11.7124 18.1568 13.4262 19.8707 15.5405 19.8707C17.6548 19.8707 19.3687 18.1568 19.3687 16.0426C19.3687 13.9283 17.6548 12.2144 15.5405 12.2144C13.4262 12.2144 11.7124 13.9283 11.7124 16.0426ZM18.6256 12.0626C18.6255 12.2396 18.6779 12.4126 18.7762 12.5597C18.8744 12.7069 19.0141 12.8216 19.1775 12.8894C19.341 12.9572 19.5208 12.9749 19.6944 12.9405C19.8679 12.906 20.0274 12.8209 20.1525 12.6958C20.2777 12.5708 20.363 12.4114 20.3976 12.2379C20.4321 12.0644 20.4145 11.8845 20.3469 11.721C20.2792 11.5575 20.1646 11.4177 20.0175 11.3193C19.8704 11.221 19.6975 11.1684 19.5206 11.1684H19.5202C19.283 11.1685 19.0556 11.2627 18.8879 11.4304C18.7201 11.5981 18.6258 11.8255 18.6256 12.0626ZM12.5286 22.1109C11.8018 22.0778 11.4067 21.9567 11.1442 21.8544C10.7961 21.7189 10.5478 21.5575 10.2867 21.2968C10.0255 21.036 9.86392 20.7879 9.72901 20.4399C9.62667 20.1774 9.5056 19.7822 9.47255 19.0554C9.43641 18.2696 9.42919 18.0335 9.42919 16.0426C9.42919 14.0517 9.43701 13.8163 9.47255 13.0298C9.50565 12.303 9.62762 11.9086 9.72901 11.6454C9.86452 11.2973 10.0259 11.049 10.2867 10.7879C10.5474 10.5268 10.7955 10.3651 11.1442 10.2302C11.4066 10.1279 11.8018 10.0068 12.5286 9.97376C13.3145 9.93762 13.5505 9.9304 15.5405 9.9304C17.5305 9.9304 17.7668 9.93822 18.5533 9.97376C19.2801 10.0069 19.6746 10.1288 19.9377 10.2302C20.2858 10.3651 20.5342 10.5271 20.7953 10.7879C21.0564 11.0486 21.2174 11.2973 21.3529 11.6454C21.4553 11.9078 21.5763 12.303 21.6094 13.0298C21.6455 13.8163 21.6527 14.0517 21.6527 16.0426C21.6527 18.0335 21.6455 18.2689 21.6094 19.0554C21.5763 19.7822 21.4546 20.1773 21.3529 20.4399C21.2174 20.7879 21.056 21.0363 20.7953 21.2968C20.5345 21.5573 20.2858 21.7189 19.9377 21.8544C19.6753 21.9568 19.2801 22.0778 18.5533 22.1109C17.7675 22.147 17.5314 22.1542 15.5405 22.1542C13.5496 22.1542 13.3142 22.147 12.5286 22.1109ZM12.4669 8.63255C11.6733 8.66869 11.1309 8.79454 10.6573 8.97883C10.1668 9.16914 9.75162 9.42447 9.33669 9.83874C8.92177 10.253 8.6671 10.6689 8.47678 11.1594C8.29249 11.6333 8.16665 12.1753 8.13051 12.9689C8.09377 13.7638 8.08536 14.018 8.08536 16.0426C8.08536 18.0671 8.09377 18.3213 8.13051 19.1162C8.16665 19.9099 8.29249 20.4518 8.47678 20.9257C8.6671 21.4159 8.92183 21.8323 9.33669 22.2464C9.75156 22.6605 10.1668 22.9154 10.6573 23.1063C11.1318 23.2906 11.6733 23.4164 12.4669 23.4526C13.2622 23.4887 13.5159 23.4977 15.5405 23.4977C17.5651 23.4977 17.8192 23.4893 18.6141 23.4526C19.4078 23.4164 19.9498 23.2906 20.4237 23.1063C20.9139 22.9154 21.3294 22.6607 21.7443 22.2464C22.1593 21.8321 22.4134 21.4159 22.6042 20.9257C22.7885 20.4518 22.915 19.9098 22.9505 19.1162C22.9867 18.3207 22.9951 18.0671 22.9951 16.0426C22.9951 14.018 22.9867 13.7638 22.9505 12.9689C22.9144 12.1752 22.7885 11.633 22.6042 11.1594C22.4134 10.6692 22.1586 10.2537 21.7443 9.83874C21.3301 9.42381 20.9139 9.16914 20.4243 8.97883C19.9498 8.79454 19.4078 8.6681 18.6147 8.63255C17.8198 8.59641 17.5657 8.5874 15.5411 8.5874C13.5165 8.5874 13.2622 8.59581 12.4669 8.63255Z" fill="white"/>
<path d="M13.0559 16.0426C13.0559 14.6702 14.1681 13.5573 15.5405 13.5573C16.9129 13.5573 18.0258 14.6702 18.0258 16.0426C18.0258 17.415 16.9129 18.5278 15.5405 18.5278C14.1681 18.5278 13.0559 17.415 13.0559 16.0426ZM11.7124 16.0426C11.7124 18.1568 13.4262 19.8707 15.5405 19.8707C17.6548 19.8707 19.3687 18.1568 19.3687 16.0426C19.3687 13.9283 17.6548 12.2144 15.5405 12.2144C13.4262 12.2144 11.7124 13.9283 11.7124 16.0426ZM18.6256 12.0626C18.6255 12.2396 18.6779 12.4126 18.7762 12.5597C18.8744 12.7069 19.0141 12.8216 19.1775 12.8894C19.341 12.9572 19.5208 12.9749 19.6944 12.9405C19.8679 12.906 20.0274 12.8209 20.1525 12.6958C20.2777 12.5708 20.363 12.4114 20.3976 12.2379C20.4321 12.0644 20.4145 11.8845 20.3469 11.721C20.2792 11.5575 20.1646 11.4177 20.0175 11.3193C19.8704 11.221 19.6975 11.1684 19.5206 11.1684H19.5202C19.283 11.1685 19.0556 11.2627 18.8879 11.4304C18.7201 11.5981 18.6258 11.8255 18.6256 12.0626ZM12.5286 22.1109C11.8018 22.0778 11.4067 21.9567 11.1442 21.8544C10.7961 21.7189 10.5478 21.5575 10.2867 21.2968C10.0255 21.036 9.86392 20.7879 9.72901 20.4399C9.62667 20.1774 9.5056 19.7822 9.47255 19.0554C9.43641 18.2696 9.42919 18.0335 9.42919 16.0426C9.42919 14.0517 9.43701 13.8163 9.47255 13.0298C9.50565 12.303 9.62762 11.9086 9.72901 11.6454C9.86452 11.2973 10.0259 11.049 10.2867 10.7879C10.5474 10.5268 10.7955 10.3651 11.1442 10.2302C11.4066 10.1279 11.8018 10.0068 12.5286 9.97376C13.3145 9.93762 13.5505 9.9304 15.5405 9.9304C17.5305 9.9304 17.7668 9.93822 18.5533 9.97376C19.2801 10.0069 19.6746 10.1288 19.9377 10.2302C20.2858 10.3651 20.5342 10.5271 20.7953 10.7879C21.0564 11.0486 21.2174 11.2973 21.3529 11.6454C21.4553 11.9078 21.5763 12.303 21.6094 13.0298C21.6455 13.8163 21.6527 14.0517 21.6527 16.0426C21.6527 18.0335 21.6455 18.2689 21.6094 19.0554C21.5763 19.7822 21.4546 20.1773 21.3529 20.4399C21.2174 20.7879 21.056 21.0363 20.7953 21.2968C20.5345 21.5573 20.2858 21.7189 19.9377 21.8544C19.6753 21.9568 19.2801 22.0778 18.5533 22.1109C17.7675 22.147 17.5314 22.1542 15.5405 22.1542C13.5496 22.1542 13.3142 22.147 12.5286 22.1109ZM12.4669 8.63255C11.6733 8.66869 11.1309 8.79454 10.6573 8.97883C10.1668 9.16914 9.75162 9.42447 9.33669 9.83874C8.92177 10.253 8.6671 10.6689 8.47678 11.1594C8.29249 11.6333 8.16665 12.1753 8.13051 12.9689C8.09377 13.7638 8.08536 14.018 8.08536 16.0426C8.08536 18.0671 8.09377 18.3213 8.13051 19.1162C8.16665 19.9099 8.29249 20.4518 8.47678 20.9257C8.6671 21.4159 8.92183 21.8323 9.33669 22.2464C9.75156 22.6605 10.1668 22.9154 10.6573 23.1063C11.1318 23.2906 11.6733 23.4164 12.4669 23.4526C13.2622 23.4887 13.5159 23.4977 15.5405 23.4977C17.5651 23.4977 17.8192 23.4893 18.6141 23.4526C19.4078 23.4164 19.9498 23.2906 20.4237 23.1063C20.9139 22.9154 21.3294 22.6607 21.7443 22.2464C22.1593 21.8321 22.4134 21.4159 22.6042 20.9257C22.7885 20.4518 22.915 19.9098 22.9505 19.1162C22.9867 18.3207 22.9951 18.0671 22.9951 16.0426C22.9951 14.018 22.9867 13.7638 22.9505 12.9689C22.9144 12.1752 22.7885 11.633 22.6042 11.1594C22.4134 10.6692 22.1586 10.2537 21.7443 9.83874C21.3301 9.42381 20.9139 9.16914 20.4243 8.97883C19.9498 8.79454 19.4078 8.6681 18.6147 8.63255C17.8198 8.59641 17.5657 8.5874 15.5411 8.5874C13.5165 8.5874 13.2622 8.59581 12.4669 8.63255Z" fill="white"/>
<defs>
<radialGradient id="paint0_radial_151_626" cx="0" cy="0" r="1" gradientUnits="userSpaceOnUse" gradientTransform="translate(4.87572 31.081) scale(37.0955)">
<stop stop-color="#FEC053"/>
<stop offset="0.3273" stop-color="#F2203E"/>
<stop offset="0.6485" stop-color="#B729A8"/>
<stop offset="1" stop-color="#5342D6"/>
</radialGradient>
</defs>
</svg>
