<svg width="40" height="40" viewBox="0 0 40 40" fill="none" xmlns="http://www.w3.org/2000/svg">
<circle cx="20" cy="20" r="19.5" fill="white" stroke="#F9FAFE"/>
<path d="M25.7 18.9136C25.721 16.5121 23.6206 14.3106 21.0178 14.0061C20.9661 14.0002 20.9097 13.9911 20.85 13.9814C20.7211 13.9606 20.5879 13.9393 20.4534 13.9393C19.92 13.9393 19.7774 14.3042 19.7399 14.5218C19.7034 14.7334 19.7382 14.9111 19.8432 15.0501C20.0198 15.2841 20.3307 15.3256 20.5803 15.3589C20.6535 15.3687 20.7225 15.3778 20.7803 15.3905C23.1188 15.8993 23.9062 16.6993 24.291 18.9571C24.3004 19.0123 24.3047 19.0803 24.3092 19.1524C24.326 19.4222 24.3609 19.9838 24.9809 19.9838H24.9809C25.0325 19.9838 25.088 19.9794 25.1457 19.9709C25.723 19.8854 25.7049 19.3722 25.6962 19.1255C25.6938 19.0561 25.6914 18.9904 25.6975 18.9467C25.6991 18.9357 25.6999 18.9246 25.7 18.9136Z" fill="#7B519D"/>
<path d="M20.3019 13.1255C20.3711 13.1304 20.4367 13.135 20.4913 13.1432C24.3313 13.7182 26.0972 15.4899 26.5866 19.2585C26.5949 19.3225 26.5962 19.4007 26.5976 19.4834C26.6025 19.7778 26.6125 20.3904 27.288 20.403L27.309 20.4033C27.5208 20.4033 27.6893 20.341 27.8099 20.2182C28.0202 20.004 28.0055 19.6858 27.9937 19.4301C27.9908 19.3674 27.988 19.3083 27.9887 19.2566C28.0376 15.4023 24.6115 11.9072 20.657 11.7773C20.6406 11.7767 20.6249 11.7776 20.6091 11.7798C20.6013 11.7809 20.5869 11.7822 20.5623 11.7822C20.5228 11.7822 20.4743 11.7789 20.4229 11.7755C20.3607 11.7714 20.2902 11.7666 20.2187 11.7666C19.5889 11.7666 19.4692 12.2025 19.4539 12.4624C19.4186 13.0629 20.0151 13.1051 20.3019 13.1255Z" fill="#7B519D"/>
<path d="M26.4016 24.1294C26.3199 24.0687 26.2355 24.0059 26.1565 23.9439C25.7372 23.6153 25.2912 23.3125 24.8598 23.0196C24.7703 22.9588 24.6808 22.8981 24.5916 22.8371C24.039 22.4592 23.5422 22.2755 23.0729 22.2755C22.4407 22.2755 21.8896 22.6156 21.4347 23.2863C21.2332 23.5837 20.9886 23.7283 20.6873 23.7283C20.5091 23.7283 20.3067 23.6787 20.0857 23.581C18.3021 22.7934 17.0285 21.5859 16.3002 19.9919C15.9482 19.2215 16.0623 18.7179 16.6819 18.308C17.0337 18.0755 17.6886 17.6426 17.6422 16.8135C17.5897 15.8721 15.4566 13.0394 14.5578 12.7177C14.1773 12.5814 13.7775 12.5802 13.3674 12.7145C12.3342 13.0528 11.5927 13.6468 11.223 14.4322C10.8657 15.1911 10.8819 16.0823 11.2697 17.0093C12.3908 19.6894 13.967 22.0261 15.9547 23.9544C17.9003 25.8421 20.2916 27.3883 23.0621 28.55C23.3118 28.6546 23.5738 28.7117 23.7651 28.7533C23.8302 28.7676 23.8865 28.7798 23.9275 28.7907C23.9501 28.7967 23.9733 28.7999 23.9966 28.8002L24.0185 28.8003C24.0186 28.8003 24.0185 28.8003 24.0186 28.8003C25.3217 28.8003 26.8863 27.6407 27.3669 26.3188C27.7879 25.1613 27.0192 24.5891 26.4016 24.1294Z" fill="#7B519D"/>
<path d="M20.8796 16.1868C20.6565 16.1923 20.1922 16.2035 20.0293 16.664C19.9531 16.8792 19.9622 17.066 20.0564 17.2193C20.1947 17.4443 20.4597 17.5132 20.7008 17.551C21.5749 17.6876 22.0238 18.1583 22.1136 19.0322C22.1553 19.4396 22.4371 19.7242 22.7988 19.7242H22.7989C22.8256 19.7242 22.8529 19.7226 22.8802 19.7194C23.3153 19.669 23.5262 19.3577 23.5071 18.7942C23.5141 18.2061 23.198 17.5385 22.6605 17.0067C22.1212 16.4733 21.471 16.1729 20.8796 16.1868Z" fill="#7B519D"/>
</svg>
