<svg width="40" height="40" viewBox="0 0 40 40" fill="none" xmlns="http://www.w3.org/2000/svg">
<circle cx="20" cy="20" r="19.5" fill="white" stroke="#F9FAFE"/>
<path d="M31.2 19.3224C31.2 25.1332 26.4528 29.8439 20.5955 29.8439C18.7367 29.8439 16.9907 29.3684 15.4707 28.5359L9.60004 30.4003L11.5137 24.7536C10.5488 23.1688 9.99306 21.308 9.99306 19.3217C9.99376 13.5109 14.7396 8.80029 20.5969 8.80029C26.4535 8.8017 31.2 13.5116 31.2 19.3224ZM20.5948 10.478C15.6792 10.478 11.6807 14.4463 11.6807 19.3245C11.6807 21.2601 12.3117 23.0519 13.3788 24.5099L12.266 27.7942L15.6905 26.706C17.0991 27.6301 18.7846 28.1682 20.5948 28.1682C25.5104 28.1682 29.5103 24.2007 29.5103 19.3224C29.5117 14.4463 25.5111 10.478 20.5948 10.478ZM25.9506 21.7461C25.8844 21.6397 25.7111 21.5749 25.4519 21.4453C25.1934 21.3157 23.9136 20.6924 23.6763 20.6079C23.4368 20.5212 23.2635 20.4776 23.0903 20.736C22.9191 20.9945 22.4204 21.5749 22.2676 21.7482C22.1162 21.9207 21.9647 21.9426 21.7048 21.8151C21.4449 21.6841 20.6068 21.4136 19.6136 20.5353C18.841 19.8507 18.3191 19.0076 18.1683 18.7491C18.0155 18.4913 18.1528 18.3519 18.2817 18.2237C18.398 18.1074 18.5416 17.9222 18.6719 17.7708C18.8022 17.6207 18.8452 17.5144 18.9318 17.3418C19.0171 17.1693 18.9741 17.0192 18.91 16.8889C18.8452 16.7593 18.3261 15.4915 18.1085 14.9752C17.8922 14.4597 17.676 14.5449 17.5239 14.5449C17.3724 14.5449 17.1992 14.5238 17.0259 14.5238C16.8526 14.5238 16.5709 14.5864 16.3335 14.8449C16.0962 15.1034 15.4242 15.7268 15.4242 16.996C15.4242 18.2666 16.3547 19.4915 16.485 19.6633C16.616 19.8345 18.2838 22.5244 20.9258 23.5569C23.5692 24.5888 23.5692 24.2444 24.0454 24.2007C24.5229 24.157 25.5836 23.5774 25.7992 22.9758C26.0161 22.3715 26.0161 21.8538 25.9506 21.7461Z" fill="#29AD1C"/>
</svg>
